<svg width="297" height="297" viewBox="0 0 297 297" fill="none" xmlns="http://www.w3.org/2000/svg">
<path d="M148.5 283.89C225.787 283.89 288.44 247.717 288.44 203.095C288.44 158.472 225.787 122.299 148.5 122.299C71.213 122.299 8.55957 158.472 8.55957 203.095C8.55957 247.717 71.213 283.89 148.5 283.89Z" fill="#F0F0F0"/>
<path d="M119.543 264.318C146.194 264.318 167.799 251.845 167.799 236.46C167.799 221.074 146.194 208.601 119.543 208.601C92.8911 208.601 71.2859 221.074 71.2859 236.46C71.2859 251.845 92.8911 264.318 119.543 264.318Z" fill="#E0E0E0"/>
<path d="M256.774 201.604L251.114 198.337C251.114 198.337 249.729 186.219 250.65 176.834C251.945 163.647 260.463 147.775 270.62 151.506C280.778 155.236 265.964 168.66 262.667 179.845C259.37 191.03 256.774 201.604 256.774 201.604Z" fill="#525735"/>
<path opacity="0.15" d="M256.774 201.604L251.114 198.337C251.114 198.337 249.729 186.219 250.65 176.834C251.945 163.647 260.463 147.775 270.62 151.506C280.778 155.236 265.964 168.66 262.667 179.845C259.37 191.03 256.774 201.604 256.774 201.604Z" fill="black"/>
<path d="M253.798 200.231C253.889 200.227 253.974 200.187 254.035 200.12C254.096 200.054 254.128 199.965 254.125 199.875C253.133 170.573 267.722 155.83 267.864 155.687C267.929 155.623 267.965 155.535 267.965 155.444C267.965 155.353 267.929 155.265 267.864 155.2C267.833 155.169 267.795 155.143 267.754 155.126C267.713 155.109 267.668 155.1 267.624 155.1C267.579 155.1 267.535 155.109 267.493 155.126C267.452 155.143 267.415 155.169 267.383 155.2C267.229 155.343 252.432 170.3 253.436 199.899C253.438 199.945 253.448 199.99 253.467 200.031C253.486 200.073 253.514 200.11 253.547 200.141C253.581 200.172 253.621 200.196 253.664 200.212C253.707 200.227 253.753 200.234 253.798 200.231Z" fill="white"/>
<path d="M260.332 203.641L256.305 201.318C256.305 201.318 255.616 193.002 259.697 182.904C263.261 174.113 272.052 166.813 276.483 168.346C280.915 169.878 280.802 173.02 278.639 176.317C276.477 179.614 263.344 187.46 260.332 203.641Z" fill="#525735"/>
<path d="M258.206 202.762C258.297 202.76 258.384 202.724 258.448 202.659C258.512 202.595 258.549 202.508 258.55 202.417C258.467 183.885 275.865 171.363 276.044 171.238C276.081 171.213 276.112 171.18 276.137 171.142C276.161 171.104 276.177 171.062 276.184 171.017C276.191 170.973 276.189 170.927 276.179 170.884C276.168 170.84 276.148 170.799 276.121 170.763C276.068 170.69 275.989 170.64 275.9 170.624C275.811 170.609 275.72 170.629 275.646 170.68C275.467 170.805 257.784 183.54 257.861 202.417C257.861 202.509 257.898 202.596 257.962 202.661C258.027 202.726 258.114 202.762 258.206 202.762Z" fill="white"/>
<path d="M47.318 194.327L52.5452 190.799C52.5452 190.799 54.844 177.137 52.7056 165.084C49.6999 148.179 38.016 142.56 33.858 144.342C29.7 146.124 28.809 151.155 36.5725 160.802C41.176 166.474 47.1576 178.586 47.318 194.327Z" fill="#525735"/>
<g opacity="0.15">
<path d="M47.318 194.327L52.5452 190.799C52.5452 190.799 54.844 177.137 52.7056 165.084C49.6999 148.179 38.016 142.56 33.858 144.342C29.7 146.124 28.809 151.155 36.5725 160.802C41.176 166.474 47.1576 178.586 47.318 194.327Z" fill="black"/>
</g>
<path d="M49.1119 187.555H49.0584C49.005 187.552 48.953 187.538 48.9056 187.513C48.8582 187.488 48.8166 187.453 48.7836 187.411C48.7505 187.369 48.7267 187.32 48.7136 187.269C48.7006 187.217 48.6987 187.163 48.708 187.11C50.5969 171.197 43.8788 153.923 36.5666 147.051C36.4963 146.979 36.4568 146.883 36.4568 146.783C36.4568 146.683 36.4963 146.587 36.5666 146.516C36.6015 146.48 36.6431 146.452 36.689 146.433C36.7349 146.414 36.7841 146.404 36.8339 146.404C36.8837 146.404 36.933 146.414 36.9789 146.433C37.0248 146.452 37.0664 146.48 37.1012 146.516C44.55 153.513 51.3929 171.072 49.4802 187.217C49.469 187.308 49.4258 187.392 49.3583 187.454C49.2908 187.516 49.2035 187.552 49.1119 187.555Z" fill="white"/>
<path d="M33.6323 203.558C32.8007 204.057 30.3772 202.257 29.7059 201.823C28.5556 201.072 27.6185 200.037 26.9854 198.818C26.2752 197.435 26.0116 195.866 26.231 194.327C26.3527 193.524 26.5293 192.73 26.7597 191.951C26.9676 191.173 27.1755 190.395 27.3537 189.611C27.6171 188.848 27.7183 188.039 27.6507 187.235C27.419 185.649 25.9875 184.562 24.6807 183.629C23.2432 182.59 21.7107 181.218 21.7107 179.305C21.784 177.802 22.3591 176.367 23.3442 175.23C24.2352 174.042 25.3044 173.008 26.1063 171.767C26.7334 170.907 27.0534 169.861 27.0151 168.797C26.9118 168.141 26.6775 167.513 26.3261 166.95C25.6252 165.714 24.7163 164.574 24.2233 163.261C23.7303 161.948 23.7659 160.261 24.8173 159.281C25.6549 158.479 26.932 158.349 28.0903 158.402C29.1817 158.511 30.2361 158.857 31.1791 159.418C34.25 161.051 36.0558 164.615 39.305 165.857C40.5583 166.332 41.9245 166.415 43.2254 166.736C44.5262 167.057 45.8687 167.692 46.4924 168.874C47.722 171.221 45.5776 174.179 46.4567 176.668C47.2408 178.877 49.4267 179.685 50.6623 181.663C51.1637 182.541 51.3718 183.557 51.2563 184.562C51.1866 186.258 50.806 187.927 50.1336 189.486C49.3602 191.103 48.4873 192.67 47.52 194.179C47.52 194.179 33.757 203.481 33.6323 203.558Z" fill="#525735"/>
<path d="M41.6631 198.634C41.6132 198.633 41.5639 198.622 41.5181 198.602C41.4723 198.583 41.4308 198.554 41.396 198.518C41.3613 198.482 41.3339 198.44 41.3156 198.393C41.2972 198.347 41.2881 198.297 41.2889 198.247C41.6215 183.207 34.2203 166.765 28.9812 162.013C28.9068 161.946 28.8619 161.852 28.8563 161.752C28.8507 161.652 28.885 161.554 28.9515 161.479C28.9864 161.443 29.028 161.415 29.0739 161.396C29.1198 161.377 29.169 161.367 29.2188 161.367C29.2686 161.367 29.3179 161.377 29.3638 161.396C29.4097 161.415 29.4513 161.443 29.4861 161.479C34.8321 166.29 42.3819 183.017 42.0433 198.265C42.0425 198.314 42.0321 198.363 42.0125 198.408C41.993 198.453 41.9648 198.494 41.9295 198.528C41.8942 198.562 41.8525 198.589 41.8068 198.607C41.7611 198.625 41.7123 198.634 41.6631 198.634Z" fill="white"/>
<path d="M38.8892 180.309C38.8541 180.317 38.8173 180.317 38.7822 180.309C33.9233 178.907 27.9002 178.764 27.8408 178.758C27.7911 178.758 27.7421 178.747 27.6966 178.727C27.6511 178.707 27.61 178.678 27.5757 178.642C27.5414 178.607 27.5147 178.564 27.4969 178.518C27.4792 178.471 27.4709 178.422 27.4725 178.372C27.4715 178.322 27.481 178.272 27.5004 178.226C27.5197 178.18 27.5484 178.138 27.5847 178.103C27.621 178.069 27.664 178.042 27.7112 178.025C27.7583 178.008 27.8085 178.001 27.8586 178.004C27.918 178.004 34.0362 178.152 38.9901 179.578C39.0859 179.607 39.1664 179.672 39.2142 179.76C39.262 179.848 39.2733 179.951 39.2456 180.047C39.2224 180.124 39.1752 180.19 39.1109 180.237C39.0467 180.285 38.9688 180.31 38.8892 180.309Z" fill="white"/>
<path d="M178.889 183.986L176.638 182.685C176.263 182.441 175.95 182.112 175.726 181.725C175.502 181.338 175.373 180.904 175.349 180.457V86.8903C175.373 86.4445 175.502 86.0107 175.725 85.6238C175.948 85.2369 176.259 84.9077 176.632 84.6628L239.21 48.5357C239.608 48.3338 240.049 48.2285 240.496 48.2285C240.943 48.2285 241.383 48.3338 241.782 48.5357L244.033 49.8366C244.408 50.0801 244.72 50.4088 244.944 50.7959C245.168 51.183 245.298 51.6175 245.322 52.0641V145.631C245.297 146.077 245.169 146.511 244.946 146.898C244.723 147.284 244.412 147.614 244.039 147.858L181.461 183.991C181.062 184.194 180.621 184.299 180.174 184.298C179.727 184.297 179.287 184.19 178.889 183.986Z" fill="#455A64"/>
<path d="M245.322 51.8562C245.233 51.1909 244.692 50.9474 244.045 51.3216L181.461 87.4546C181.083 87.692 180.77 88.0209 180.552 88.4109L175.723 85.6251C175.939 85.2321 176.252 84.9009 176.632 84.6628L239.21 48.5357C239.608 48.3338 240.049 48.2285 240.496 48.2285C240.943 48.2285 241.383 48.3338 241.782 48.5357L244.033 49.8366C244.381 50.0604 244.676 50.3568 244.898 50.7054C245.121 51.054 245.265 51.4465 245.322 51.8562Z" fill="#455A64"/>
<path d="M181.241 184.092C180.861 184.246 180.452 184.317 180.042 184.3C179.632 184.282 179.231 184.177 178.865 183.991L176.608 182.685C176.235 182.44 175.924 182.111 175.701 181.724C175.478 181.337 175.35 180.903 175.325 180.457V86.8903C175.34 86.4436 175.469 86.0082 175.699 85.6251L180.529 88.4109C180.294 88.7946 180.163 89.2326 180.148 89.6821V183.249C180.172 183.986 180.635 184.324 181.241 184.092Z" fill="#263238"/>
<path d="M180.172 89.694V183.249C180.172 184.069 180.766 184.401 181.461 183.992L244.039 147.858C244.412 147.614 244.723 147.284 244.946 146.898C245.169 146.511 245.298 146.077 245.322 145.631V52.0641C245.322 51.2444 244.728 50.9117 244.039 51.3216L181.461 87.4546C181.084 87.6993 180.771 88.0299 180.547 88.4192C180.323 88.8085 180.195 89.2454 180.172 89.694Z" fill="#37474F"/>
<path d="M165.56 125.334C164.752 124.853 161.004 122.72 160.808 122.608C160.655 122.516 160.525 122.392 160.426 122.244C160.328 122.096 160.264 121.927 160.24 121.751C160.215 121.575 160.231 121.395 160.285 121.226C160.339 121.057 160.43 120.901 160.552 120.772L175.349 104.9L180.172 107.668L165.381 123.552C165.265 123.676 165.177 123.823 165.122 123.983C165.068 124.144 165.048 124.315 165.065 124.484C165.082 124.652 165.135 124.816 165.22 124.962C165.306 125.109 165.421 125.236 165.56 125.334Z" fill="#455A64"/>
<path d="M180.172 107.686L165.382 123.552C165.217 123.727 165.11 123.948 165.074 124.186C165.038 124.424 165.075 124.666 165.18 124.883C165.285 125.099 165.453 125.278 165.661 125.397C165.87 125.516 166.11 125.568 166.35 125.548L180.172 124.407V107.686Z" fill="#37474F"/>
<path d="M212.747 79.1208C220.041 74.9093 225.952 78.3248 225.952 86.7477C225.952 95.1707 220.041 105.405 212.747 109.617C205.453 113.828 199.542 110.413 199.542 101.996C199.542 93.5787 205.453 83.3322 212.747 79.1208Z" fill="#525735"/>
<path d="M212.652 85.7499C215.028 84.3837 216.935 85.4885 216.935 88.2209C216.854 89.7062 216.424 91.1515 215.68 92.4395C214.936 93.7275 213.898 94.822 212.652 95.634C210.276 97.0002 208.363 95.8954 208.363 93.163C208.445 91.6771 208.876 90.2315 209.621 88.9434C210.366 87.6554 211.405 86.5612 212.652 85.7499Z" fill="white"/>
<path d="M221.099 100.315C221.099 95.83 217.945 94.0064 214.06 96.2518L211.63 97.6536C207.746 99.8989 204.591 105.376 204.591 109.848V111.078C205.325 111.312 206.091 111.431 206.861 111.428C208.944 111.358 210.974 110.743 212.747 109.646C216.124 107.567 218.98 104.742 221.099 101.39V100.315Z" fill="white"/>
<path d="M204.384 151.31L221.111 141.651C221.823 141.241 222.4 141.574 222.4 142.394V147.781C222.375 148.228 222.246 148.662 222.022 149.049C221.798 149.437 221.486 149.765 221.111 150.009L204.384 159.667C203.671 160.077 203.095 159.744 203.095 158.925V153.537C203.119 153.091 203.248 152.656 203.472 152.269C203.696 151.882 204.008 151.553 204.384 151.31Z" fill="#525735"/>
<path d="M196.192 139.275L229.284 120.16C230.133 119.667 230.828 120.065 230.828 121.051V123.053C230.799 123.589 230.644 124.11 230.376 124.574C230.108 125.039 229.734 125.433 229.284 125.726L196.174 144.841C195.325 145.334 194.636 144.936 194.636 143.95V141.966C194.663 141.426 194.818 140.9 195.089 140.433C195.36 139.965 195.738 139.568 196.192 139.275Z" fill="#FAFAFA"/>
<path d="M200.065 125.441C200.517 125.18 200.867 125.138 201.117 125.322C201.366 125.506 201.491 125.916 201.491 126.546C201.503 127.12 201.375 127.689 201.117 128.203C200.883 128.667 200.517 129.052 200.065 129.308L199.174 129.825V131.743C199.172 131.809 199.156 131.874 199.127 131.933C199.106 131.987 199.068 132.033 199.02 132.064L198.568 132.325C198.553 132.337 198.534 132.343 198.515 132.343C198.496 132.343 198.477 132.337 198.461 132.325C198.429 132.285 198.414 132.234 198.42 132.183V126.629C198.419 126.563 198.433 126.498 198.461 126.439C198.484 126.386 198.521 126.341 198.568 126.308L200.065 125.441ZM199.174 128.749L200.035 128.251C200.244 128.133 200.419 127.966 200.546 127.763C200.681 127.525 200.747 127.253 200.736 126.979C200.736 126.659 200.671 126.474 200.546 126.421C200.458 126.4 200.366 126.399 200.278 126.418C200.189 126.438 200.106 126.477 200.035 126.534L199.174 127.033V128.749Z" fill="#FAFAFA"/>
<path d="M203.98 123.178C204.039 123.142 204.087 123.142 204.116 123.178C204.154 123.231 204.181 123.292 204.193 123.356L205.566 128.001C205.566 128.001 205.566 128.037 205.566 128.054C205.565 128.121 205.548 128.186 205.518 128.245C205.497 128.298 205.46 128.344 205.411 128.375L205.007 128.607C204.936 128.648 204.882 128.654 204.853 128.607C204.824 128.577 204.804 128.54 204.793 128.5L204.55 127.686L202.768 128.708L202.53 129.801C202.513 129.86 202.492 129.918 202.465 129.973C202.435 130.046 202.381 130.105 202.31 130.139L201.907 130.371C201.892 130.384 201.873 130.391 201.853 130.391C201.834 130.391 201.815 130.384 201.8 130.371C201.769 130.333 201.754 130.284 201.758 130.234C201.755 130.213 201.755 130.191 201.758 130.169L203.124 123.944C203.141 123.852 203.167 123.763 203.201 123.677C203.231 123.614 203.278 123.562 203.338 123.528L203.98 123.178ZM204.289 126.777L203.695 124.681L203.101 127.484L204.289 126.777Z" fill="#FAFAFA"/>
<path d="M207.645 120.974C207.843 120.849 208.07 120.773 208.304 120.754C208.47 120.739 208.636 120.777 208.779 120.861C208.909 120.946 209.011 121.068 209.07 121.212C209.135 121.358 209.171 121.515 209.177 121.675C209.181 121.741 209.167 121.807 209.136 121.865C209.115 121.919 209.077 121.965 209.029 121.996L208.637 122.221C208.571 122.257 208.524 122.263 208.494 122.221C208.457 122.197 208.427 122.165 208.405 122.126C208.381 122.073 208.347 122.025 208.304 121.985C208.261 121.945 208.21 121.915 208.155 121.895C207.975 121.869 207.791 121.916 207.645 122.025C207.548 122.088 207.457 122.157 207.371 122.233C207.283 122.314 207.205 122.406 207.14 122.507C207.076 122.603 207.025 122.707 206.985 122.815C206.95 122.919 206.932 123.027 206.932 123.136C206.925 123.236 206.943 123.336 206.985 123.427C207.003 123.459 207.029 123.486 207.06 123.506C207.091 123.525 207.127 123.537 207.163 123.54C207.273 123.559 207.386 123.559 207.496 123.54L208.013 123.427C208.205 123.37 208.406 123.346 208.607 123.356C208.75 123.356 208.89 123.401 209.005 123.487C209.114 123.578 209.192 123.7 209.231 123.837C209.289 124.03 209.315 124.23 209.308 124.431C209.307 124.696 209.269 124.96 209.195 125.215C209.122 125.477 209.017 125.729 208.88 125.964C208.736 126.204 208.565 126.428 208.369 126.629C208.17 126.836 207.942 127.014 207.692 127.158C207.509 127.269 207.308 127.347 207.098 127.389C206.927 127.422 206.751 127.408 206.587 127.348C206.439 127.279 206.316 127.164 206.237 127.021C206.14 126.838 206.087 126.634 206.082 126.427C206.082 126.359 206.096 126.292 206.124 126.231C206.15 126.18 206.189 126.137 206.237 126.106L206.629 125.88C206.688 125.845 206.736 125.833 206.771 125.851C206.807 125.869 206.831 125.898 206.855 125.952C206.879 126.013 206.911 126.071 206.95 126.124C206.987 126.176 207.038 126.215 207.098 126.237C207.176 126.255 207.258 126.255 207.336 126.237C207.462 126.207 207.582 126.157 207.692 126.088C207.807 126.023 207.917 125.947 208.019 125.863C208.219 125.705 208.377 125.501 208.482 125.269C208.53 125.15 208.554 125.023 208.553 124.894C208.559 124.848 208.555 124.801 208.542 124.756C208.528 124.711 208.506 124.669 208.476 124.633C208.444 124.605 208.406 124.584 208.365 124.571C208.324 124.559 208.281 124.556 208.239 124.562C208.104 124.567 207.97 124.589 207.841 124.627C207.686 124.663 207.508 124.704 207.3 124.74C207.141 124.78 206.976 124.792 206.813 124.776C206.684 124.767 206.563 124.715 206.468 124.627C206.366 124.526 206.294 124.399 206.261 124.259C206.213 124.052 206.191 123.841 206.195 123.629C206.195 123.368 206.233 123.107 206.308 122.857C206.379 122.599 206.483 122.352 206.617 122.12C206.745 121.891 206.901 121.677 207.08 121.485C207.243 121.289 207.433 121.117 207.645 120.974Z" fill="#FAFAFA"/>
<path d="M211.547 118.729C211.745 118.599 211.971 118.522 212.207 118.503C212.372 118.489 212.538 118.526 212.682 118.61C212.809 118.697 212.908 118.818 212.967 118.96C213.032 119.107 213.068 119.264 213.074 119.424C213.081 119.49 213.066 119.557 213.032 119.614C213.011 119.668 212.974 119.713 212.925 119.744L212.533 119.97C212.474 120.006 212.426 120.018 212.391 119.97C212.353 119.946 212.324 119.911 212.308 119.869C212.253 119.765 212.162 119.685 212.052 119.643C211.963 119.63 211.873 119.635 211.786 119.658C211.7 119.68 211.618 119.72 211.547 119.774C211.448 119.835 211.354 119.904 211.268 119.982C211.182 120.063 211.106 120.155 211.042 120.255C210.977 120.351 210.925 120.455 210.888 120.564C210.851 120.667 210.831 120.775 210.828 120.885C210.821 120.985 210.84 121.085 210.882 121.176C210.9 121.208 210.926 121.235 210.957 121.255C210.988 121.274 211.023 121.286 211.06 121.289C211.17 121.308 211.283 121.308 211.393 121.289L211.91 121.176C212.103 121.122 212.303 121.098 212.504 121.105C212.647 121.103 212.787 121.149 212.902 121.235C213.01 121.328 213.09 121.45 213.133 121.586C213.186 121.779 213.21 121.979 213.204 122.18C213.204 122.445 213.166 122.709 213.092 122.964C213.019 123.226 212.913 123.477 212.777 123.712C212.634 123.956 212.462 124.181 212.266 124.384C212.065 124.586 211.84 124.761 211.595 124.906C211.412 125.017 211.211 125.096 211.001 125.138C210.832 125.17 210.657 125.156 210.496 125.096C210.344 125.03 210.219 124.915 210.139 124.77C210.042 124.587 209.991 124.383 209.991 124.176C209.984 124.109 209.999 124.043 210.032 123.986C210.053 123.932 210.091 123.886 210.139 123.855L210.531 123.629C210.591 123.594 210.644 123.582 210.674 123.599C210.695 123.609 210.713 123.623 210.727 123.64C210.742 123.658 210.752 123.678 210.757 123.7C210.784 123.76 210.816 123.818 210.852 123.873C210.891 123.925 210.945 123.964 211.007 123.986C211.085 124.004 211.166 124.004 211.244 123.986C211.37 123.956 211.491 123.906 211.601 123.837C211.713 123.77 211.82 123.694 211.921 123.611C212.026 123.53 212.118 123.434 212.195 123.326C212.272 123.224 212.335 123.112 212.385 122.994C212.432 122.875 212.457 122.748 212.456 122.619C212.462 122.573 212.458 122.526 212.444 122.481C212.431 122.436 212.409 122.394 212.379 122.358C212.347 122.33 212.309 122.309 212.268 122.296C212.227 122.284 212.184 122.281 212.141 122.287C212.009 122.295 211.877 122.317 211.749 122.352C211.595 122.388 211.411 122.429 211.209 122.465C211.047 122.505 210.881 122.517 210.716 122.501C210.587 122.494 210.464 122.441 210.371 122.352C210.27 122.251 210.2 122.123 210.169 121.984C210.116 121.78 210.092 121.57 210.098 121.36C210.1 121.097 210.138 120.835 210.211 120.582C210.284 120.325 210.388 120.078 210.52 119.845C210.648 119.614 210.806 119.401 210.989 119.21C211.149 119.021 211.337 118.859 211.547 118.729Z" fill="#FAFAFA"/>
<path d="M215.877 119.471L215.396 122.316C215.382 122.402 215.358 122.486 215.325 122.566C215.302 122.63 215.258 122.684 215.2 122.72L214.749 122.982C214.689 123.017 214.648 123.017 214.618 122.982C214.578 122.933 214.555 122.872 214.553 122.809L213.84 117.79C213.84 117.79 213.84 117.743 213.84 117.725C213.842 117.659 213.858 117.594 213.888 117.535C213.91 117.482 213.947 117.437 213.994 117.404L214.404 117.166C214.439 117.153 214.477 117.153 214.511 117.166C214.547 117.166 214.571 117.214 214.583 117.309L215.052 120.689L215.462 118.152C215.472 118.089 215.49 118.027 215.515 117.968C215.539 117.893 215.59 117.83 215.658 117.79L216.115 117.523C216.18 117.487 216.228 117.493 216.258 117.523C216.283 117.561 216.301 117.603 216.311 117.648L216.727 119.709L217.196 115.788C217.202 115.711 217.224 115.636 217.261 115.569C217.289 115.524 217.326 115.486 217.368 115.456L217.778 115.218C217.794 115.207 217.812 115.2 217.832 115.2C217.851 115.2 217.87 115.207 217.885 115.218C217.902 115.238 217.915 115.26 217.923 115.285C217.931 115.309 217.935 115.335 217.933 115.361C217.935 115.384 217.935 115.408 217.933 115.432L217.22 121.271C217.208 121.356 217.186 121.44 217.155 121.52C217.127 121.584 217.082 121.638 217.024 121.675L216.566 121.936C216.513 121.966 216.471 121.966 216.442 121.936C216.412 121.882 216.388 121.824 216.37 121.764L215.877 119.471Z" fill="#FAFAFA"/>
<path d="M218.657 116.953C218.671 116.623 218.71 116.295 218.776 115.973C218.844 115.657 218.948 115.35 219.085 115.058C219.216 114.774 219.384 114.508 219.584 114.268C219.787 114.029 220.03 113.828 220.303 113.674C220.512 113.532 220.757 113.451 221.01 113.442C221.198 113.444 221.379 113.519 221.515 113.65C221.658 113.812 221.762 114.005 221.817 114.214C221.894 114.487 221.936 114.769 221.942 115.052C221.942 115.159 221.942 115.278 221.942 115.408C221.942 115.539 221.942 115.676 221.942 115.818C221.942 115.961 221.942 116.097 221.942 116.228C221.942 116.359 221.942 116.483 221.942 116.596C221.929 116.924 221.89 117.249 221.823 117.57C221.755 117.885 221.653 118.192 221.52 118.485C221.385 118.768 221.216 119.034 221.016 119.275C220.813 119.511 220.572 119.712 220.303 119.869C220.089 120.01 219.84 120.09 219.584 120.101C219.492 120.103 219.4 120.086 219.314 120.051C219.228 120.016 219.15 119.965 219.085 119.899C218.93 119.733 218.823 119.527 218.776 119.305C218.705 119.031 218.666 118.75 218.657 118.467C218.657 118.36 218.657 118.242 218.657 118.111C218.657 117.98 218.657 117.844 218.657 117.701C218.657 117.558 218.657 117.428 218.657 117.291C218.657 117.155 218.651 117.06 218.657 116.953ZM221.188 115.533C221.201 115.388 221.185 115.241 221.14 115.102C221.095 114.963 221.022 114.835 220.926 114.725C220.772 114.588 220.558 114.594 220.303 114.725C220.025 114.888 219.806 115.133 219.673 115.426C219.505 115.772 219.415 116.152 219.412 116.537C219.412 116.757 219.412 117 219.412 117.267C219.412 117.535 219.412 117.772 219.412 117.986C219.399 118.132 219.415 118.278 219.46 118.417C219.505 118.556 219.577 118.684 219.673 118.794C219.828 118.925 220.041 118.913 220.303 118.764C220.575 118.6 220.793 118.358 220.926 118.069C221.095 117.725 221.184 117.348 221.188 116.965C221.188 116.739 221.188 116.495 221.188 116.228C221.188 115.961 221.194 115.747 221.188 115.533Z" fill="#FAFAFA"/>
<path d="M224.532 111.304C225.001 111.036 225.352 110.995 225.595 111.191C225.74 111.35 225.847 111.539 225.91 111.744C225.972 111.95 225.989 112.166 225.958 112.379C225.962 112.782 225.9 113.184 225.773 113.567C225.653 113.924 225.465 114.254 225.221 114.541L225.993 116.222C225.996 116.25 225.996 116.278 225.993 116.305C225.994 116.359 225.981 116.412 225.958 116.46C225.941 116.503 225.912 116.54 225.874 116.567L225.399 116.84C225.322 116.881 225.269 116.887 225.233 116.84C225.202 116.809 225.175 116.773 225.156 116.733L224.425 115.147L223.683 115.575V117.582C223.683 117.648 223.669 117.713 223.641 117.772C223.617 117.824 223.58 117.869 223.534 117.903L223.083 118.164C223.068 118.177 223.049 118.184 223.029 118.184C223.01 118.184 222.991 118.177 222.976 118.164C222.959 118.146 222.946 118.125 222.938 118.101C222.929 118.078 222.926 118.053 222.928 118.028V112.474C222.93 112.408 222.946 112.343 222.976 112.284C222.997 112.23 223.034 112.184 223.083 112.153L224.532 111.304ZM223.694 114.499L224.532 114.048C224.737 113.934 224.912 113.773 225.043 113.579C225.18 113.35 225.247 113.085 225.233 112.818C225.233 112.498 225.168 112.319 225.043 112.284C224.862 112.259 224.679 112.306 224.532 112.414L223.724 112.878L223.694 114.499Z" fill="#FAFAFA"/>
<path d="M228.512 109.017C228.727 108.876 228.974 108.79 229.231 108.767C229.416 108.76 229.598 108.827 229.735 108.951C229.893 109.117 230.002 109.322 230.05 109.545C230.13 109.84 230.174 110.143 230.181 110.448C230.181 110.864 230.181 111.292 230.181 111.725C230.169 112.079 230.125 112.431 230.05 112.777C229.982 113.098 229.879 113.411 229.741 113.709C229.609 113.983 229.441 114.239 229.242 114.47C229.044 114.706 228.807 114.907 228.542 115.064L227.134 115.83C227.119 115.843 227.1 115.849 227.08 115.849C227.061 115.849 227.042 115.843 227.027 115.83C227.009 115.812 226.996 115.79 226.988 115.767C226.98 115.743 226.977 115.718 226.979 115.693V110.139C226.981 110.073 226.997 110.009 227.027 109.949C227.048 109.896 227.085 109.85 227.134 109.819L228.512 109.017ZM229.427 110.864C229.424 110.703 229.4 110.543 229.355 110.389C229.328 110.272 229.268 110.165 229.183 110.08C229.146 110.043 229.101 110.014 229.052 109.994C229.003 109.975 228.951 109.966 228.898 109.967C228.749 109.977 228.606 110.026 228.482 110.11L227.734 110.537V114.41L228.512 113.965C228.662 113.877 228.797 113.765 228.91 113.632C229.02 113.502 229.114 113.358 229.189 113.205C229.263 113.041 229.319 112.87 229.355 112.694C229.397 112.51 229.421 112.323 229.427 112.135C229.444 111.702 229.444 111.28 229.427 110.864Z" fill="#FAFAFA"/>
<path d="M146.944 22.8037C147.969 23.0318 148.957 23.4038 149.878 23.9085C150.76 24.3827 151.551 25.0102 152.212 25.7618C152.846 26.4847 153.316 27.3356 153.591 28.2566C153.871 29.2424 153.891 30.284 153.65 31.28C153.491 32.0698 153.178 32.8205 152.729 33.4897C152.32 34.062 151.832 34.5738 151.28 35.0104C150.738 35.4312 150.159 35.803 149.551 36.1211L147.841 37.03C147.325 37.2987 146.836 37.6149 146.379 37.9744C145.966 38.2914 145.649 38.7171 145.465 39.204C145.374 39.4264 145.224 39.6196 145.031 39.7624C144.94 39.8333 144.833 39.8825 144.72 39.9062C144.607 39.9299 144.49 39.9274 144.378 39.899L141.859 39.3406C141.738 39.3152 141.623 39.2658 141.521 39.1955C141.419 39.1251 141.332 39.0351 141.265 38.9308C141.194 38.8337 141.147 38.7214 141.127 38.6027C141.107 38.484 141.116 38.3624 141.152 38.2477C141.355 37.4677 141.713 36.7364 142.204 36.0974C142.652 35.5321 143.171 35.027 143.748 34.5946C144.31 34.1829 144.907 33.8192 145.53 33.5075C146.124 33.2046 146.718 32.9135 147.235 32.6225C147.715 32.3641 148.167 32.0555 148.583 31.7018C148.948 31.3965 149.201 30.9785 149.302 30.5138C149.396 30.1102 149.392 29.6898 149.288 29.2884C149.185 28.887 148.986 28.5167 148.708 28.2091C148.013 27.4507 147.085 26.9467 146.071 26.7775C144.193 26.3617 142.609 26.9933 141.319 28.6724C141.194 28.8557 141.037 29.0147 140.855 29.1416C140.65 29.2433 140.413 29.2603 140.196 29.1892L137.517 28.5952C137.326 28.5582 137.157 28.4472 137.048 28.2863C136.989 28.2003 136.95 28.1028 136.932 28.0003C136.915 27.8978 136.92 27.7927 136.947 27.6923C137.174 26.8669 137.598 26.1088 138.182 25.4826C138.841 24.7564 139.623 24.153 140.493 23.7006C141.444 23.2031 142.469 22.8621 143.528 22.6908C144.663 22.5062 145.823 22.5445 146.944 22.8037ZM144.098 41.9186C144.334 41.9739 144.539 42.1192 144.669 42.3235C144.798 42.5277 144.843 42.7747 144.793 43.0115L144.152 45.9221C144.13 46.044 144.083 46.1599 144.013 46.2623C143.944 46.3646 143.853 46.4511 143.748 46.5161C143.649 46.5847 143.536 46.6317 143.417 46.6542C143.299 46.6767 143.177 46.6742 143.059 46.6468L140.184 45.9875C140.062 45.9669 139.945 45.9201 139.843 45.8504C139.74 45.7807 139.654 45.6897 139.59 45.5836C139.523 45.4832 139.478 45.3704 139.457 45.2519C139.435 45.1334 139.438 45.0118 139.465 44.8945L140.113 41.9839C140.168 41.748 140.313 41.5428 140.517 41.412C140.721 41.2812 140.968 41.2349 141.206 41.283L144.098 41.9186Z" fill="#525735"/>
<path d="M150.116 50.6682C150.831 50.5534 151.559 50.5395 152.278 50.6266C152.965 50.7083 153.632 50.9093 154.25 51.2206C154.838 51.5258 155.356 51.9507 155.771 52.468C156.143 52.9743 156.405 53.553 156.54 54.1669C156.675 54.7808 156.68 55.4161 156.555 56.032C156.441 56.5055 156.259 56.9598 156.014 57.3804C155.778 57.7895 155.503 58.1753 155.194 58.5327C154.891 58.8891 154.6 59.2277 154.333 59.5544C154.071 59.8588 153.839 60.1869 153.638 60.5345C153.45 60.8392 153.355 61.1923 153.365 61.5503C153.36 61.7176 153.313 61.8809 153.228 62.0255C153.185 62.0921 153.129 62.1488 153.062 62.1918C152.995 62.2348 152.92 62.2631 152.842 62.2749L151.06 62.5601C150.977 62.5752 150.891 62.5735 150.809 62.5551C150.726 62.5368 150.648 62.5021 150.579 62.4531C150.509 62.409 150.45 62.3489 150.408 62.2776C150.365 62.2063 150.341 62.126 150.335 62.0433C150.261 61.4905 150.301 60.9283 150.454 60.392C150.594 59.9171 150.794 59.462 151.048 59.0376C151.298 58.6304 151.584 58.2467 151.904 57.8912C152.218 57.5348 152.498 57.2022 152.771 56.8814C153.015 56.595 153.226 56.2822 153.4 55.9488C153.555 55.6619 153.611 55.3323 153.561 55.0103C153.516 54.7269 153.404 54.4585 153.233 54.2279C153.062 53.9973 152.839 53.8113 152.581 53.6857C151.942 53.3772 151.219 53.2895 150.526 53.4362C149.897 53.5281 149.313 53.812 148.852 54.2491C148.392 54.6862 148.078 55.255 147.954 55.8776C147.919 56.0273 147.858 56.17 147.775 56.2993C147.669 56.4121 147.526 56.4818 147.371 56.4953L145.494 56.7983C145.362 56.8235 145.226 56.7958 145.114 56.721C145.057 56.6817 145.009 56.6307 144.973 56.5713C144.937 56.5118 144.914 56.4454 144.906 56.3765C144.85 55.7871 144.942 55.193 145.174 54.648C145.408 54.0138 145.754 53.4264 146.195 52.9135C146.678 52.3519 147.248 51.8706 147.882 51.4879C148.567 51.0728 149.325 50.7944 150.116 50.6682ZM153.181 63.6471C153.263 63.6341 153.346 63.6374 153.427 63.6568C153.507 63.6761 153.583 63.7112 153.65 63.7599C153.72 63.806 153.779 63.8663 153.824 63.9369C153.87 64.0076 153.899 64.0869 153.911 64.1698L154.244 66.2072C154.27 66.3725 154.229 66.5413 154.131 66.6769C154.034 66.8126 153.886 66.9042 153.721 66.9319L151.731 67.2586C151.566 67.2842 151.398 67.2436 151.262 67.1457C151.193 67.0991 151.135 67.0385 151.091 66.9679C151.047 66.8973 151.018 66.8183 151.007 66.7359L150.674 64.6985C150.659 64.6167 150.661 64.5327 150.681 64.4519C150.7 64.371 150.736 64.2952 150.787 64.2292C150.834 64.1603 150.894 64.102 150.965 64.058C151.035 64.014 151.114 63.9853 151.197 63.9738L153.181 63.6471Z" fill="#525735"/>
<g opacity="0.2">
<path d="M150.116 50.6682C150.831 50.5534 151.559 50.5395 152.278 50.6266C152.965 50.7083 153.632 50.9093 154.25 51.2206C154.838 51.5258 155.356 51.9507 155.771 52.468C156.143 52.9743 156.405 53.553 156.54 54.1669C156.675 54.7808 156.68 55.4161 156.555 56.032C156.441 56.5055 156.259 56.9598 156.014 57.3804C155.778 57.7895 155.503 58.1753 155.194 58.5327C154.891 58.8891 154.6 59.2277 154.333 59.5544C154.071 59.8588 153.839 60.1869 153.638 60.5345C153.45 60.8392 153.355 61.1923 153.365 61.5503C153.36 61.7176 153.313 61.8809 153.228 62.0255C153.185 62.0921 153.129 62.1488 153.062 62.1918C152.995 62.2348 152.92 62.2631 152.842 62.2749L151.06 62.5601C150.977 62.5752 150.891 62.5735 150.809 62.5551C150.726 62.5368 150.648 62.5021 150.579 62.4531C150.509 62.409 150.45 62.3489 150.408 62.2776C150.365 62.2063 150.341 62.126 150.335 62.0433C150.261 61.4905 150.301 60.9283 150.454 60.392C150.594 59.9171 150.794 59.462 151.048 59.0376C151.298 58.6304 151.584 58.2467 151.904 57.8912C152.218 57.5348 152.498 57.2022 152.771 56.8814C153.015 56.595 153.226 56.2822 153.4 55.9488C153.555 55.6619 153.611 55.3323 153.561 55.0103C153.516 54.7269 153.404 54.4585 153.233 54.2279C153.062 53.9973 152.839 53.8113 152.581 53.6857C151.942 53.3772 151.219 53.2895 150.526 53.4362C149.897 53.5281 149.313 53.812 148.852 54.2491C148.392 54.6862 148.078 55.255 147.954 55.8776C147.919 56.0273 147.858 56.17 147.775 56.2993C147.669 56.4121 147.526 56.4818 147.371 56.4953L145.494 56.7983C145.362 56.8235 145.226 56.7958 145.114 56.721C145.057 56.6817 145.009 56.6307 144.973 56.5713C144.937 56.5118 144.914 56.4454 144.906 56.3765C144.85 55.7871 144.942 55.193 145.174 54.648C145.408 54.0138 145.754 53.4264 146.195 52.9135C146.678 52.3519 147.248 51.8706 147.882 51.4879C148.567 51.0728 149.325 50.7944 150.116 50.6682ZM153.181 63.6471C153.263 63.6341 153.346 63.6374 153.427 63.6568C153.507 63.6761 153.583 63.7112 153.65 63.7599C153.72 63.806 153.779 63.8663 153.824 63.9369C153.87 64.0076 153.899 64.0869 153.911 64.1698L154.244 66.2072C154.27 66.3725 154.229 66.5413 154.131 66.6769C154.034 66.8126 153.886 66.9042 153.721 66.9319L151.731 67.2586C151.566 67.2842 151.398 67.2436 151.262 67.1457C151.193 67.0991 151.135 67.0385 151.091 66.9679C151.047 66.8973 151.018 66.8183 151.007 66.7359L150.674 64.6985C150.659 64.6167 150.661 64.5327 150.681 64.4519C150.7 64.371 150.736 64.2952 150.787 64.2292C150.834 64.1603 150.894 64.102 150.965 64.058C151.035 64.014 151.114 63.9853 151.197 63.9738L153.181 63.6471Z" fill="black"/>
</g>
<path d="M166.914 53.8699C166.995 53.9262 167.064 53.9984 167.116 54.0822C167.168 54.1659 167.202 54.2594 167.217 54.357C167.236 54.4536 167.234 54.5531 167.213 54.6492C167.192 54.7453 167.15 54.8359 167.092 54.9153L165.678 56.9052C165.622 56.9862 165.55 57.0548 165.466 57.1069C165.382 57.159 165.289 57.1935 165.191 57.2082C165.095 57.2271 164.995 57.2257 164.899 57.2043C164.803 57.1828 164.712 57.1417 164.633 57.0834L162.685 55.6994C162.604 55.6438 162.535 55.5717 162.484 55.4877C162.433 55.4038 162.4 55.3099 162.388 55.2123C162.369 55.1157 162.37 55.0162 162.392 54.9201C162.413 54.824 162.454 54.7334 162.512 54.654L163.944 52.6641C164.06 52.5028 164.234 52.3936 164.43 52.3603C164.626 52.3269 164.827 52.372 164.989 52.4859L166.914 53.8699ZM175.135 40.392C175.845 40.8899 176.478 41.4904 177.012 42.174C177.533 42.8099 177.935 43.5342 178.2 44.3124C178.447 45.0582 178.53 45.8483 178.444 46.629C178.343 47.4616 178.028 48.2537 177.529 48.9278C177.158 49.4728 176.681 49.9375 176.127 50.294C175.639 50.5999 175.109 50.8321 174.553 50.983C174.011 51.1245 173.459 51.2199 172.901 51.2682L171.321 51.4107C170.848 51.4486 170.378 51.5301 169.92 51.6543C169.496 51.7503 169.109 51.9646 168.803 52.272C168.665 52.4125 168.49 52.5113 168.298 52.5571C168.207 52.5833 168.111 52.5872 168.018 52.5686C167.925 52.55 167.837 52.5094 167.763 52.4502L166.041 51.2266C165.876 51.109 165.763 50.9324 165.726 50.7336C165.704 50.6372 165.705 50.537 165.728 50.441C165.752 50.3451 165.798 50.256 165.863 50.1811C166.265 49.659 166.768 49.2227 167.342 48.8981C167.858 48.616 168.409 48.4024 168.981 48.2625C169.533 48.1286 170.095 48.0432 170.662 48.0071C171.22 47.9715 171.743 47.9299 172.23 47.8824C172.676 47.843 173.116 47.7554 173.543 47.621C173.916 47.4967 174.238 47.2523 174.458 46.926C174.656 46.6505 174.785 46.3311 174.834 45.995C174.883 45.6589 174.849 45.316 174.737 44.9955C174.456 44.2038 173.919 43.5286 173.21 43.0769C171.927 42.1621 170.527 42.1324 169.011 42.9878C168.858 43.085 168.689 43.1534 168.512 43.1898C168.42 43.1962 168.327 43.1843 168.239 43.1547C168.152 43.1251 168.071 43.0785 168.001 43.0175L166.171 41.7166C166.105 41.6727 166.048 41.6158 166.005 41.5495C165.961 41.4832 165.931 41.4087 165.916 41.3305C165.902 41.2497 165.905 41.1668 165.924 41.0871C165.943 41.0073 165.979 40.9325 166.029 40.8672C166.461 40.3142 167.022 39.8756 167.662 39.5901C168.391 39.2603 169.17 39.0593 169.967 38.9961C170.844 38.9229 171.727 38.9931 172.581 39.204C173.503 39.4262 174.371 39.8301 175.135 40.392Z" fill="#525735"/>
<g opacity="0.6">
<path d="M166.914 53.8699C166.995 53.9262 167.064 53.9984 167.116 54.0822C167.168 54.1659 167.202 54.2594 167.217 54.357C167.236 54.4536 167.234 54.5531 167.213 54.6492C167.192 54.7453 167.15 54.8359 167.092 54.9153L165.678 56.9052C165.622 56.9862 165.55 57.0548 165.466 57.1069C165.382 57.159 165.289 57.1935 165.191 57.2082C165.095 57.2271 164.995 57.2257 164.899 57.2043C164.803 57.1828 164.712 57.1417 164.633 57.0834L162.685 55.6994C162.604 55.6438 162.535 55.5717 162.484 55.4877C162.433 55.4038 162.4 55.3099 162.388 55.2123C162.369 55.1157 162.37 55.0162 162.392 54.9201C162.413 54.824 162.454 54.7334 162.512 54.654L163.944 52.6641C164.06 52.5028 164.234 52.3936 164.43 52.3603C164.626 52.3269 164.827 52.372 164.989 52.4859L166.914 53.8699ZM175.135 40.392C175.845 40.8899 176.478 41.4904 177.012 42.174C177.533 42.8099 177.935 43.5342 178.2 44.3124C178.447 45.0582 178.53 45.8483 178.444 46.629C178.343 47.4616 178.028 48.2537 177.529 48.9278C177.158 49.4728 176.681 49.9375 176.127 50.294C175.639 50.5999 175.109 50.8321 174.553 50.983C174.011 51.1245 173.459 51.2199 172.901 51.2682L171.321 51.4107C170.848 51.4486 170.378 51.5301 169.92 51.6543C169.496 51.7503 169.109 51.9646 168.803 52.272C168.665 52.4125 168.49 52.5113 168.298 52.5571C168.207 52.5833 168.111 52.5872 168.018 52.5686C167.925 52.55 167.837 52.5094 167.763 52.4502L166.041 51.2266C165.876 51.109 165.763 50.9324 165.726 50.7336C165.704 50.6372 165.705 50.537 165.728 50.441C165.752 50.3451 165.798 50.256 165.863 50.1811C166.265 49.659 166.768 49.2227 167.342 48.8981C167.858 48.616 168.409 48.4024 168.981 48.2625C169.533 48.1286 170.095 48.0432 170.662 48.0071C171.22 47.9715 171.743 47.9299 172.23 47.8824C172.676 47.843 173.116 47.7554 173.543 47.621C173.916 47.4967 174.238 47.2523 174.458 46.926C174.656 46.6505 174.785 46.3311 174.834 45.995C174.883 45.6589 174.849 45.316 174.737 44.9955C174.456 44.2038 173.919 43.5286 173.21 43.0769C171.927 42.1621 170.527 42.1324 169.011 42.9878C168.858 43.085 168.689 43.1534 168.512 43.1898C168.42 43.1962 168.327 43.1843 168.239 43.1547C168.152 43.1251 168.071 43.0785 168.001 43.0175L166.171 41.7166C166.105 41.6727 166.048 41.6158 166.005 41.5495C165.961 41.4832 165.931 41.4087 165.916 41.3305C165.902 41.2497 165.905 41.1668 165.924 41.0871C165.943 41.0073 165.979 40.9325 166.029 40.8672C166.461 40.3142 167.022 39.8756 167.662 39.5901C168.391 39.2603 169.17 39.0593 169.967 38.9961C170.844 38.9229 171.727 38.9931 172.581 39.204C173.503 39.4262 174.371 39.8301 175.135 40.392Z" fill="white"/>
</g>
<path d="M122.679 106.451H101.574V55.3193C101.574 50.8782 103.338 46.6191 106.478 43.4789C109.619 40.3386 113.878 38.5744 118.319 38.5744H120.267C124.708 38.5744 128.967 40.3386 132.108 43.4789C135.248 46.6191 137.012 50.8782 137.012 55.3193V92.1473C137.004 95.9435 135.491 99.5816 132.803 102.263C130.116 104.945 126.475 106.451 122.679 106.451Z" fill="#263238"/>
<path d="M99.5188 229.545C99.1455 231.664 98.9468 233.81 98.9248 235.961C98.8475 239.857 98.1347 241.241 98.0397 244.437C97.9268 248.09 98.5624 249.456 100.041 251.512C101.521 253.567 105.387 255.426 107.063 251.957C108.738 248.488 108.494 246.213 107.965 242.631C107.425 238.925 107.371 236.875 107.039 234.054C106.766 231.565 106.445 229.67 106.445 229.67L99.5188 229.545Z" fill="#263238"/>
<path d="M110.579 203.665L97.7487 203.433C97.9387 211.999 99.299 221.509 99.5307 229.569C99.5782 231.084 99.495 241.324 100.065 244.419C100.927 249.1 106.475 248.464 106.772 245.666C107.069 242.869 106.415 230.912 106.433 229.676C106.379 224.52 108.809 215.818 110.062 206.563C110.116 206.118 110.52 204.11 110.579 203.665Z" fill="#FFA8A7"/>
<path d="M127.063 222.881C127.063 222.881 126.558 222.607 126.469 223.148C126.344 223.79 126.154 225.114 125.875 226.171C125.506 227.639 125.197 230.056 125.417 231.256C125.637 232.456 128.429 233.988 130.24 234.547C132.473 235.236 134.51 236.448 136.18 238.081C137.962 239.768 141.841 241.36 144.496 241.342C147.615 241.342 149.789 240.303 150.817 238.634C151.844 236.964 149.878 236.762 146.314 234.476L143.552 232.694C137.903 229.005 135.83 227.033 134.244 223.344L127.063 222.881Z" fill="#263238"/>
<path d="M134.292 220.594C134.196 217.945 136.026 195.426 136.026 195.426L123.843 200.98C126.451 216.555 127.009 220.231 127.051 222.78C126.997 222.993 126.975 223.213 126.985 223.433C126.985 226.457 130.413 228.09 133.074 230.11C135.336 231.882 137.747 233.456 140.279 234.814C142.215 235.782 146.148 235.871 146.635 234.63C143.392 232.153 138.675 228.446 136.097 225.619C134.838 224.288 134.387 223.249 134.292 220.594Z" fill="#FFA8A7"/>
<path d="M103.006 120.083C98.3248 130.353 98.3248 138.301 99.1029 151.411C99.792 163.439 100.938 174.042 100.938 174.042C100.76 176.174 97.7961 180.338 97.41 189.771C97.0536 198.586 98.004 209.795 98.004 209.795C98.004 209.795 104.663 213.484 109.587 209.759C109.587 209.759 114.339 187.074 115.729 176.038C116.917 166.409 119.055 154.107 119.055 154.107L123.552 175.973C122.581 179.075 121.878 182.254 121.449 185.477C120.82 191.969 124.455 204.716 124.455 204.716C124.455 204.716 131.333 206.765 135.533 203.041C135.533 203.041 137.101 182.316 137.689 174.499C138.473 164.027 136.822 135.682 135.533 120.671L103.006 120.083Z" fill="#455A64"/>
<path d="M119.067 154.09L120.915 137.612C120.915 137.612 129.195 136.507 132.949 132.979C131.875 134.66 130.443 136.084 128.757 137.149C127.07 138.215 125.169 138.896 123.19 139.145L120.517 154.476L123.552 175.973L119.067 154.09Z" fill="#263238"/>
<path d="M152.599 116.032C152.941 113.025 153.091 110 153.05 106.974C152.866 104.36 152.397 103.932 148.744 99.305C143.813 93.0501 139.602 87.425 135.147 81.8354C131.963 77.8437 128.613 77.2319 125.358 77.4101C123.077 77.5349 127.532 88.506 129.771 94.9985L142.56 108.767C142.956 109.311 143.138 109.981 143.071 110.65L142.299 122.364L146.13 127.496C146.13 127.496 151.933 122.495 152.599 116.032Z" fill="#FFA8A7"/>
<path d="M113.026 77.7665C110.549 77.9388 106.047 78.3605 106.047 78.3605C103.451 79.8099 102.792 81.0038 102.311 84.449C102.103 85.9221 103.303 89.8366 104.33 95.4024L106.278 105.72L106.065 110.84C105.055 113.965 102.768 117.844 100.748 123.564C110.668 129.1 118.984 129.308 126.528 128.316C132.278 127.573 135.325 126.183 136.341 124.805C136.127 119.156 135.747 115.664 135.628 109.759C135.586 107.282 135.735 104.776 135.836 101.924C139.691 98.7525 139.739 93.4778 137.618 90.0445C132.729 82.1265 127.971 77.1428 124.823 77.3982L113.026 77.7665Z" fill="#525735"/>
<path opacity="0.6" d="M113.026 77.7665C110.549 77.9388 106.047 78.3605 106.047 78.3605C103.451 79.8099 102.792 81.0038 102.311 84.449C102.103 85.9221 103.303 89.8366 104.33 95.4024L106.278 105.72L106.065 110.84C105.055 113.965 102.768 117.844 100.748 123.564C110.668 129.1 118.984 129.308 126.528 128.316C132.278 127.573 135.325 126.183 136.341 124.805C136.127 119.156 135.747 115.664 135.628 109.759C135.586 107.282 135.735 104.776 135.836 101.924C139.691 98.7525 139.739 93.4778 137.618 90.0445C132.729 82.1265 127.971 77.1428 124.823 77.3982L113.026 77.7665Z" fill="white"/>
<path opacity="0.1" d="M128.156 102.002C128.156 102.002 123.629 105.518 118.455 103.683C117.003 103.225 115.693 102.4 114.652 101.288C113.611 100.175 112.875 98.813 112.515 97.3329C112.515 97.3329 111.969 103.243 118.485 105.257C124.799 107.199 128.156 102.002 128.156 102.002Z" fill="black"/>
<path d="M134.297 61.5444C134.101 70.1217 131.327 72.2364 129.926 72.8304C128.524 73.4244 125.839 73.068 123.225 72.6344V77.814C123.225 77.814 126.243 80.9741 126.017 83.3323C125.791 85.6905 121.265 85.9578 117.891 83.6471C116.03 82.3684 114.346 80.8483 112.884 79.1268C112.603 78.7947 112.449 78.3737 112.45 77.9388V65.8212C112.45 65.8212 111.019 67.3359 108.488 65.6014C107.942 65.253 107.475 64.7947 107.115 64.2558C106.756 63.7169 106.513 63.1092 106.401 62.4712C106.289 61.8332 106.312 61.1789 106.466 60.55C106.621 59.921 106.905 59.3312 107.3 58.8179C108.405 57.5171 111.209 57.428 112.551 59.4119C113.311 60.891 113.412 62.3819 114.262 61.7879C116.519 60.1604 115.307 56.4419 118.034 54.6599C118.928 54.1929 119.858 53.7958 120.814 53.4719C125.679 51.7909 129.896 50.3772 130.912 47.0508C132.824 48.1437 134.535 51.4286 134.297 61.5444Z" fill="#FFA8A7"/>
<path d="M124.704 69.207C125.328 69.207 125.833 68.7017 125.833 68.0784C125.833 67.4551 125.328 66.9498 124.704 66.9498C124.081 66.9498 123.576 67.4551 123.576 68.0784C123.576 68.7017 124.081 69.207 124.704 69.207Z" fill="#B16668"/>
<path d="M123.956 60.2435C123.956 60.4759 123.887 60.7031 123.759 60.8969C123.631 61.0908 123.449 61.2429 123.235 61.3343C123.022 61.4257 122.786 61.4524 122.557 61.4112C122.328 61.3699 122.117 61.2626 121.949 61.1023C121.78 60.942 121.663 60.736 121.61 60.5095C121.558 60.2831 121.573 60.0464 121.654 59.8285C121.735 59.6107 121.878 59.4213 122.065 59.2839C122.253 59.1465 122.476 59.0671 122.708 59.0555C122.869 59.0474 123.03 59.0722 123.181 59.1283C123.332 59.1844 123.471 59.2706 123.587 59.3817C123.704 59.4929 123.797 59.6266 123.86 59.7747C123.924 59.9229 123.956 60.0824 123.956 60.2435Z" fill="#263238"/>
<path d="M132.955 60.3623C132.967 60.5076 132.95 60.6539 132.905 60.7926C132.86 60.9314 132.788 61.0598 132.693 61.1704C132.598 61.2809 132.482 61.3715 132.351 61.4367C132.221 61.5019 132.079 61.5405 131.933 61.5503C131.787 61.5638 131.638 61.546 131.499 61.498C131.36 61.4499 131.232 61.3728 131.125 61.2717C131.017 61.1706 130.933 61.0478 130.877 60.9115C130.821 60.7751 130.794 60.6284 130.799 60.4811C130.783 60.3347 130.798 60.1867 130.842 60.0462C130.886 59.9057 130.958 59.7756 131.054 59.6639C131.15 59.5523 131.268 59.4614 131.4 59.3969C131.532 59.3323 131.676 59.2955 131.823 59.2886C131.97 59.2817 132.117 59.3049 132.255 59.3568C132.393 59.4087 132.519 59.4882 132.625 59.5904C132.73 59.6926 132.814 59.8153 132.871 59.9511C132.928 60.0869 132.957 60.2329 132.955 60.3801V60.3623Z" fill="#263238"/>
<path d="M122.429 63.2967C121.405 63.2967 120.422 62.8901 119.697 62.1662C118.972 61.4423 118.564 60.4602 118.562 59.4357C118.562 56.8102 121.271 56.8102 122.429 56.8102C123.588 56.8102 126.29 56.8102 126.29 59.4357C126.289 60.4592 125.881 61.4403 125.158 62.1641C124.434 62.8878 123.453 63.2951 122.429 63.2967ZM122.429 57.4161C120.053 57.4161 119.174 58.0101 119.174 59.4357C119.174 60.3021 119.518 61.1331 120.131 61.7458C120.744 62.3585 121.575 62.7027 122.441 62.7027C123.308 62.7027 124.139 62.3585 124.751 61.7458C125.364 61.1331 125.708 60.3021 125.708 59.4357C125.684 57.9804 124.77 57.4161 122.429 57.4161Z" fill="#455A64"/>
<path d="M132.236 63.2967C131.212 63.2967 130.229 62.8901 129.504 62.1662C128.779 61.4423 128.371 60.4602 128.369 59.4357C128.369 56.8102 131.078 56.8102 132.236 56.8102C133.395 56.8102 136.097 56.8102 136.097 59.4357C136.096 60.4592 135.688 61.4403 134.965 62.1641C134.241 62.8878 133.26 63.2951 132.236 63.2967ZM132.236 57.4161C129.896 57.4161 128.981 58.0101 128.981 59.4357C128.981 60.3021 129.325 61.1331 129.938 61.7458C130.551 62.3585 131.382 62.7027 132.248 62.7027C133.115 62.7027 133.946 62.3585 134.558 61.7458C135.171 61.1331 135.515 60.3021 135.515 59.4357C135.491 57.9804 134.577 57.4161 132.236 57.4161Z" fill="#455A64"/>
<path d="M126.89 58.1882L127.08 65.4053L130.876 64.2292L126.89 58.1882Z" fill="#F28F8F"/>
<path d="M123.219 72.6521C120.463 72.2898 114.791 70.6623 113.905 68.4169C114.262 69.5517 114.956 70.5506 115.895 71.28C117.588 72.7353 123.219 74.3688 123.219 74.3688V72.6521Z" fill="#F28F8F"/>
<path d="M123.356 54.6836L120.837 56.2221C120.639 55.8764 120.581 55.4674 120.676 55.0803C120.772 54.6931 121.012 54.3575 121.348 54.1431C121.514 54.0423 121.699 53.9762 121.892 53.9488C122.084 53.9215 122.28 53.9334 122.468 53.9839C122.655 54.0345 122.831 54.1225 122.984 54.2428C123.136 54.363 123.263 54.513 123.356 54.6836Z" fill="#263238"/>
<path d="M133.602 56.3944L130.799 55.4143C130.853 55.2285 130.945 55.0557 131.068 54.9067C131.192 54.7576 131.344 54.6354 131.517 54.5475C131.689 54.4596 131.878 54.4078 132.071 54.3955C132.264 54.3832 132.458 54.4105 132.64 54.4758C133.016 54.6109 133.326 54.8855 133.505 55.2426C133.684 55.5998 133.719 56.0122 133.602 56.3944Z" fill="#263238"/>
<path d="M125.987 59.7445C125.947 59.7446 125.907 59.7365 125.87 59.7209C125.833 59.7053 125.799 59.6825 125.771 59.6537C125.743 59.625 125.721 59.5909 125.706 59.5534C125.691 59.516 125.684 59.4759 125.684 59.4357C125.684 58.9426 126.659 58.6219 127.538 58.6219C128.417 58.6219 128.981 58.9426 128.981 59.4357C128.963 59.5002 128.924 59.557 128.87 59.5974C128.817 59.6378 128.751 59.6597 128.684 59.6597C128.617 59.6597 128.552 59.6378 128.498 59.5974C128.445 59.557 128.406 59.5002 128.387 59.4357C128.387 59.3763 128.084 59.2278 127.556 59.2278C127.13 59.2187 126.706 59.2913 126.308 59.4416C126.308 59.4829 126.3 59.5238 126.284 59.5618C126.267 59.5998 126.243 59.634 126.213 59.6624C126.183 59.6907 126.148 59.7127 126.109 59.7268C126.07 59.7409 126.029 59.747 125.987 59.7445Z" fill="#455A64"/>
<path d="M118.877 59.4832H118.842L112.052 58.8892C111.735 58.5747 111.357 58.3282 110.941 58.1645L118.913 58.9011C118.993 58.9115 119.065 58.9527 119.115 59.0159C119.165 59.0792 119.189 59.1595 119.18 59.2396C119.166 59.3093 119.128 59.3719 119.073 59.4164C119.018 59.4609 118.948 59.4845 118.877 59.4832Z" fill="#455A64"/>
<path d="M91.0008 66.5637C93.2223 63.5937 94.737 61.3543 96.7626 58.8417C97.9149 57.3982 98.6515 56.3647 99.7326 54.8856C100.493 53.8639 100.921 53.0026 101.788 52.6878C102.725 52.3039 103.569 51.7248 104.265 50.989C104.692 50.5159 105.089 50.0159 105.453 49.4921C106.726 47.7784 108.238 46.2562 109.943 44.9718C111.725 43.6293 113.715 42.5958 115.551 41.3187C116.644 40.5524 117.814 39.2812 116.483 38.0932C116.075 37.7496 115.587 37.5146 115.064 37.4101C111.826 36.7092 109.011 37.82 105.845 38.6278C104.47 38.9711 103.125 39.426 101.823 39.9881C101.183 40.2412 100.583 40.5853 100.041 41.0098C99.284 41.7735 98.6632 42.6616 98.206 43.6353C96.822 46.1063 93.852 48.316 91.773 50.2702C89.3435 52.5571 87.1695 54.654 84.3955 57.1725C81.9007 59.4475 79.4594 61.5384 77.1725 64.0213C75.2776 66.0706 75.9845 67.6744 76.2339 68.2328C77.7783 71.4048 79.5069 72.5452 81.5799 74.5114C85.1439 77.915 97.4695 87.7101 101.55 90.9474C102.427 91.636 103.116 92.535 103.552 93.561L104.336 95.3727C108.993 96.228 112.1 89.2366 108.245 80.8197C107.606 79.4586 106.631 78.283 105.411 77.4042C100.54 73.858 91.0008 66.5637 91.0008 66.5637Z" fill="#FFA8A7"/>
<path d="M91.0008 66.5637C89.5185 68.3871 87.5432 69.7459 85.3102 70.4781C85.3102 70.4781 88.2802 71.2384 92.3491 67.5853L91.0008 66.5637Z" fill="#F28F8F"/>
<path d="M151.387 109.837L150.627 109.183C150.513 109.108 150.383 109.061 150.248 109.046C150.113 109.03 149.976 109.047 149.848 109.094L141.598 111.339C141.182 111.478 140.801 111.705 140.481 112.004C140.162 112.303 139.91 112.668 139.744 113.074L133.804 130.199C133.733 130.338 133.705 130.496 133.724 130.652C133.743 130.808 133.808 130.954 133.911 131.072L134.695 131.749C134.81 131.828 134.941 131.878 135.079 131.894C135.216 131.911 135.356 131.894 135.485 131.844L143.748 129.599C144.164 129.46 144.544 129.234 144.864 128.934C145.184 128.635 145.436 128.27 145.601 127.864C146.789 124.497 150.353 114.107 151.541 110.739C151.684 110.318 151.613 109.997 151.387 109.837Z" fill="#455A64"/>
<path d="M134.583 130.858L140.523 113.733C140.688 113.328 140.939 112.963 141.259 112.665C141.579 112.366 141.96 112.141 142.376 112.005L150.621 109.759C151.387 109.551 151.809 109.991 151.535 110.739C150.347 114.107 146.783 124.496 145.595 127.864C145.43 128.27 145.178 128.635 144.858 128.934C144.538 129.234 144.158 129.46 143.742 129.599L135.497 131.868C134.737 132.046 134.327 131.607 134.583 130.858Z" fill="#525735"/>
<path d="M141.479 112.48C141.05 112.805 140.717 113.24 140.517 113.739L134.577 130.858C134.509 130.994 134.48 131.147 134.495 131.298C134.51 131.449 134.567 131.593 134.66 131.714L133.923 131.084C133.818 130.967 133.75 130.821 133.73 130.665C133.71 130.509 133.738 130.35 133.81 130.211L139.75 113.086C139.938 112.62 140.243 112.211 140.635 111.898L141.479 112.48Z" fill="#37474F"/>
<path d="M149.124 117.642C148.53 119.382 146.468 120.546 143.059 121.354C139.649 122.162 137.766 125.78 138.307 126.878C138.847 127.977 144.36 129.005 146.564 128.69C148.767 128.375 150.977 125.191 151.648 124.205C152.319 123.219 153.092 116.341 152.385 115.396C151.678 114.452 150.187 114.6 150.187 114.6L149.124 117.642Z" fill="#F28F8F"/>
</svg>
